<!-- Copyright 2026 Stephan Schlöpke -->
<!-- SPDX-License-Identifier: Apache-2.0 -->
<svg xmlns="http://www.w3.org/2000/svg" viewBox="0 0 64 64" role="img" aria-label="Game Event Script — dialogue"><defs><linearGradient id="blue" x1="0" y1="0" x2="1" y2="1"><stop stop-color="#514fe7"/><stop offset="1" stop-color="#27bcd4"/></linearGradient>
<linearGradient id="violet" x1="0" y1="1" x2="1" y2="0"><stop stop-color="#7760ec"/><stop offset="1" stop-color="#4288ed"/></linearGradient><g id="dialogue-color"><path d="M8 30C4 18 14 8 28 8C41 8 49 13 52 23C47 19 43 19 38 20C33 21 31 24 28 28C24 33 19 35 13 34L7 41Z" fill="url(#blue)"/><path d="M8 30C4 18 14 8 28 8C41 8 49 13 52 23C47 19 43 19 38 20C33 21 31 24 28 28C24 33 19 35 13 34L7 41Z" transform="rotate(180 32 32)" fill="url(#violet)"/></g><g id="dialogue-mono"><path d="M8 30C4 18 14 8 28 8C41 8 49 13 52 23C47 19 43 19 38 20C33 21 31 24 28 28C24 33 19 35 13 34L7 41Z"/><path d="M8 30C4 18 14 8 28 8C41 8 49 13 52 23C47 19 43 19 38 20C33 21 31 24 28 28C24 33 19 35 13 34L7 41Z" transform="rotate(180 32 32)"/></g></defs><use href="#dialogue-color"/></svg>