<!-- Copyright 2026 Stephan Schlöpke -->
<!-- SPDX-License-Identifier: Apache-2.0 -->
<svg xmlns="http://www.w3.org/2000/svg" viewBox="0 0 64 64" role="img" aria-label="Game Event Script — Blickkontakt"><defs><linearGradient id="player-blue" gradientUnits="userSpaceOnUse" x1="10" y1="8" x2="50" y2="35"><stop stop-color="#4864d9"/><stop offset="1" stop-color="#79a7ef"/></linearGradient>
<linearGradient id="player-teal" gradientUnits="userSpaceOnUse" x1="10" y1="8" x2="50" y2="35"><stop stop-color="#2b99a6"/><stop offset="1" stop-color="#78ccc1"/></linearGradient><mask id="face-holes" maskUnits="userSpaceOnUse" x="0" y="0" width="64" height="64"><rect width="64" height="64" fill="white"/><ellipse cx="35" cy="15.6" rx="2.1" ry="2.65" fill="black"/><ellipse cx="42" cy="16.6" rx="1.85" ry="2.35" fill="black"/><ellipse cx="21" cy="48.0" rx="1.85" ry="2.35" fill="black"/><ellipse cx="28" cy="47.0" rx="2.1" ry="2.65" fill="black"/></mask><g id="pixel-contact-color"><g mask="url(#face-holes)"><g fill="url(#player-blue)"><path d="M8 30C4 18 14 8 28 8C41 8 49 13 52 23C47 19 43 19 38 20C33 21 31 24 28 28C24 33 19 35 13 34V37H10V41H6V30Z"/><path d="M53 8H57V12H53ZM58 15H61V18H58Z"/></g><g transform="rotate(180 32 32)" fill="url(#player-teal)"><path d="M8 30C4 18 14 8 28 8C41 8 49 13 52 23C47 19 43 19 38 20C33 21 31 24 28 28C24 33 19 35 13 34V37H10V41H6V30Z"/><path d="M53 8H57V12H53ZM58 15H61V18H58Z"/></g></g></g><g id="pixel-contact-mono"><g mask="url(#face-holes)"><g fill="currentColor"><path d="M8 30C4 18 14 8 28 8C41 8 49 13 52 23C47 19 43 19 38 20C33 21 31 24 28 28C24 33 19 35 13 34V37H10V41H6V30Z"/><path d="M53 8H57V12H53ZM58 15H61V18H58Z"/></g><g transform="rotate(180 32 32)" fill="currentColor"><path d="M8 30C4 18 14 8 28 8C41 8 49 13 52 23C47 19 43 19 38 20C33 21 31 24 28 28C24 33 19 35 13 34V37H10V41H6V30Z"/><path d="M53 8H57V12H53ZM58 15H61V18H58Z"/></g></g></g></defs><use href="#pixel-contact-color"/></svg>